<svg width="80" height="60" viewBox="-133 60 260 1" fill="none" xmlns="http://www.w3.org/2000/svg">
<g id="Group 1">
<path id="center" fill-rule="evenodd" clip-rule="evenodd" d="M120.69 62.2148C120.86 62.5048 120.95 62.8148 120.95 63.1448C120.95 63.3548 120.94 63.5848 120.93 63.8148C120.95 64.0448 120.95 64.2748 120.95 64.4848C120.95 64.8148 120.86 65.1248 120.69 65.4148C119.77 69.4248 116.09 74.6748 104.79 74.6748C75.56 74.6748 46.34 74.6748 17.11 74.6748C5.80001 74.6748 2.13001 69.4348 1.21001 65.4148C1.04001 65.1248 0.950012 64.8148 0.950012 64.4848C0.950012 64.2748 0.960012 64.0448 0.970012 63.8148C0.950012 63.5848 0.950012 63.3548 0.950012 63.1448C0.950012 62.8148 1.04001 62.5048 1.21001 62.2148C2.13001 58.2048 5.81001 52.9548 17.11 52.9548H62.51L79.25 70.2448L95.88 52.9548H104.79C116.1 52.9648 119.77 58.2048 120.69 62.2148Z" fill="black"/>
<path id="top" fill-rule="evenodd" clip-rule="evenodd" d="M89.42 14.1C92.85 14.1 95.64 16.88 95.64 20.32C95.64 23.75 92.86 26.54 89.42 26.54C85.99 26.54 83.2 23.76 83.2 20.32C83.21 16.89 85.99 14.1 89.42 14.1ZM35.2 14.54C38.63 14.54 41.42 17.32 41.42 20.76C41.42 24.19 38.64 26.98 35.2 26.98C31.77 26.98 28.98 24.2 28.98 20.76C28.98 17.32 31.76 14.54 35.2 14.54ZM62.09 8.61C65.52 8.61 68.31 11.39 68.31 14.83C68.31 18.26 65.53 21.05 62.09 21.05C58.66 21.05 55.87 18.27 55.87 14.83C55.88 11.39 58.66 8.61 62.09 8.61ZM112.5 45.13H12.44C6.08 45.13 0.870003 39.93 0.870003 33.57C0.870003 17.1 33.68 0.78 61.23 0.5C115.44 -0.04 139.77 45.13 112.5 45.13Z" fill="black"/>
<path id="bottom" fill-rule="evenodd" clip-rule="evenodd" d="M5.02998 83.5548C42.35 83.4848 79.64 83.4448 116.96 83.5548C119.18 83.5648 121 85.3748 121 87.5948C121 93.6248 118.47 105.425 104.83 105.425C75.6 105.425 46.38 105.425 17.15 105.425C3.50998 105.425 0.97998 93.6248 0.97998 87.5948C0.97998 85.3748 2.79998 83.5648 5.02998 83.5548Z" fill="black"/>
</g>
</svg>
