<svg width="317" height="310" viewBox="0 0 317 310" fill="none" xmlns="http://www.w3.org/2000/svg">
<path d="M184.847 31.3777C205.674 100.73 252.653 108.15 250.393 153.92C249.986 162.16 246.502 170.014 241.014 176.174C217.237 202.866 184.593 206.999 123.111 166.337M35.234 179.677C148.397 132.327 195.294 38.1595 185.802 6.55392" stroke="#353535" stroke-width="20"/>
<circle cx="88.9437" cy="100.068" r="17.1901" transform="rotate(-16.7158 88.9437 100.068)" fill="#353535"/>
<path d="M139.733 16.083L129.184 59.3813" stroke="#353535" stroke-width="20"/>
<path d="M17.76 280C18.208 280 18.656 279.552 19.104 278.656C19.552 277.76 19.776 276.288 19.776 274.24V228.16C19.776 226.112 19.552 224.672 19.104 223.84C18.656 222.944 18.208 222.464 17.76 222.4H71.808V224.32L73.728 233.536C72.128 232.832 69.312 232.096 65.28 231.328C61.248 230.496 56.384 230.08 50.688 230.08H34.464C32.544 230.08 31.392 230.24 31.008 230.56C30.688 230.816 30.528 231.616 30.528 232.96V243.904C30.528 245.312 30.688 246.144 31.008 246.4C31.392 246.656 32.512 246.784 34.368 246.784H50.208C53.92 246.784 56.896 246.592 59.136 246.208C61.44 245.76 62.944 245.312 63.648 244.864C63.392 245.696 63.104 246.688 62.784 247.84C62.464 248.992 62.208 250.144 62.016 251.296C61.824 252.448 61.728 253.504 61.728 254.464H34.368C32.512 254.464 31.392 254.592 31.008 254.848C30.688 255.04 30.528 255.872 30.528 257.344V274.24C30.528 276.352 30.752 277.856 31.2 278.752C31.648 279.584 32.096 280 32.544 280H17.76ZM98.0655 280.96C91.6655 280.96 86.6415 279.936 82.9935 277.888C79.4095 275.84 76.8815 273.056 75.4095 269.536C74.0015 266.016 73.2975 262.048 73.2975 257.632C73.2975 253.152 74.0335 249.152 75.5055 245.632C77.0415 242.112 79.6015 239.328 83.1855 237.28C86.7695 235.168 91.7295 234.112 98.0655 234.112C104.402 234.112 109.362 235.168 112.946 237.28C116.53 239.328 119.058 242.112 120.53 245.632C122.066 249.152 122.833 253.152 122.833 257.632C122.833 262.048 122.097 266.016 120.625 269.536C119.218 273.056 116.722 275.84 113.138 277.888C109.554 279.936 104.53 280.96 98.0655 280.96ZM98.0655 274.144C102.034 274.144 105.106 273.504 107.282 272.224C109.458 270.944 110.962 269.088 111.794 266.656C112.626 264.16 113.042 261.152 113.042 257.632C113.042 254.112 112.594 251.104 111.698 248.608C110.866 246.112 109.362 244.192 107.186 242.848C105.074 241.504 102.034 240.832 98.0655 240.832C94.1615 240.832 91.1215 241.536 88.9455 242.944C86.7695 244.288 85.2335 246.24 84.3375 248.8C83.5055 251.296 83.0895 254.272 83.0895 257.728C83.0895 261.12 83.5055 264.064 84.3375 266.56C85.1695 268.992 86.6735 270.88 88.8495 272.224C91.0255 273.504 94.0975 274.144 98.0655 274.144ZM154.316 280.96C147.916 280.96 142.892 279.936 139.244 277.888C135.66 275.84 133.132 273.056 131.66 269.536C130.252 266.016 129.548 262.048 129.548 257.632C129.548 253.152 130.284 249.152 131.756 245.632C133.292 242.112 135.852 239.328 139.436 237.28C143.02 235.168 147.98 234.112 154.316 234.112C160.652 234.112 165.612 235.168 169.196 237.28C172.78 239.328 175.308 242.112 176.78 245.632C178.316 249.152 179.083 253.152 179.083 257.632C179.083 262.048 178.347 266.016 176.875 269.536C175.468 273.056 172.972 275.84 169.388 277.888C165.804 279.936 160.78 280.96 154.316 280.96ZM154.316 274.144C158.284 274.144 161.356 273.504 163.532 272.224C165.708 270.944 167.212 269.088 168.044 266.656C168.876 264.16 169.292 261.152 169.292 257.632C169.292 254.112 168.844 251.104 167.948 248.608C167.116 246.112 165.612 244.192 163.436 242.848C161.324 241.504 158.284 240.832 154.316 240.832C150.412 240.832 147.372 241.536 145.196 242.944C143.02 244.288 141.484 246.24 140.588 248.8C139.756 251.296 139.34 254.272 139.34 257.728C139.34 261.12 139.756 264.064 140.588 266.56C141.42 268.992 142.924 270.88 145.1 272.224C147.276 273.504 150.348 274.144 154.316 274.144ZM208.934 280.96C202.854 280.96 198.118 279.936 194.726 277.888C191.398 275.84 189.062 273.056 187.718 269.536C186.438 266.016 185.798 262.048 185.798 257.632C185.798 253.152 186.438 249.152 187.718 245.632C189.062 242.112 191.398 239.328 194.726 237.28C198.118 235.168 202.854 234.112 208.934 234.112C211.494 234.112 213.766 234.368 215.75 234.88C217.734 235.328 219.462 235.968 220.934 236.8C222.406 237.568 223.622 238.496 224.582 239.584L224.774 239.488L224.582 237.664V219.52C224.582 217.472 224.358 216.032 223.91 215.2C223.526 214.304 223.11 213.824 222.662 213.76H234.374V274.24C234.374 276.288 234.566 277.76 234.95 278.656C235.398 279.552 235.846 280 236.294 280H224.582V277.024L224.87 275.2L224.582 275.104C223.622 276.192 222.406 277.184 220.934 278.08C219.462 278.976 217.734 279.68 215.75 280.192C213.766 280.704 211.494 280.96 208.934 280.96ZM209.606 274.144C212.87 274.144 215.494 273.664 217.478 272.704C219.462 271.68 220.966 270.368 221.99 268.768C223.014 267.104 223.686 265.312 224.006 263.392C224.39 261.472 224.582 259.552 224.582 257.632C224.582 255.968 224.39 254.176 224.006 252.256C223.622 250.272 222.918 248.416 221.894 246.688C220.87 244.96 219.366 243.552 217.382 242.464C215.398 241.376 212.806 240.832 209.606 240.832C204.23 240.832 200.518 242.368 198.47 245.44C196.486 248.512 195.494 252.608 195.494 257.728C195.494 261.12 195.878 264.064 196.646 266.56C197.478 268.992 198.918 270.88 200.966 272.224C203.014 273.504 205.894 274.144 209.606 274.144ZM245.541 280C245.989 280 246.405 279.552 246.789 278.656C247.237 277.76 247.461 276.288 247.461 274.24V240.832C247.461 238.784 247.237 237.344 246.789 236.512C246.405 235.616 245.989 235.136 245.541 235.072H257.253V274.24C257.253 276.288 257.445 277.76 257.829 278.656C258.277 279.552 258.725 280 259.173 280H245.541ZM251.397 225.856C249.541 225.856 248.101 225.344 247.077 224.32C246.053 223.232 245.541 221.984 245.541 220.576C245.541 219.104 246.021 217.856 246.981 216.832C248.005 215.808 249.477 215.296 251.397 215.296C253.317 215.296 254.757 215.808 255.717 216.832C256.741 217.856 257.253 219.104 257.253 220.576C257.253 221.984 256.741 223.232 255.717 224.32C254.693 225.344 253.253 225.856 251.397 225.856ZM291.481 280.96C286.425 280.96 282.265 280.384 279.001 279.232C275.737 278.016 273.177 276.352 271.321 274.24C269.465 272.128 268.153 269.664 267.385 266.848C266.681 264.032 266.329 260.96 266.329 257.632C266.329 250.4 268.377 244.672 272.473 240.448C276.633 236.224 282.777 234.112 290.905 234.112C295.641 234.112 299.449 234.752 302.329 236.032C305.273 237.312 307.481 239.008 308.953 241.12C310.489 243.232 311.513 245.536 312.025 248.032C312.601 250.464 312.889 252.864 312.889 255.232V259.744C312.889 259.552 311.993 259.36 310.201 259.168C308.473 258.912 305.529 258.784 301.369 258.784H276.121C276.121 263.52 277.529 267.264 280.345 270.016C283.161 272.768 287.353 274.144 292.921 274.144C297.721 274.144 301.657 273.568 304.729 272.416C307.865 271.2 309.945 270.016 310.969 268.864V270.784L311.929 277.12C310.521 277.952 308.025 278.816 304.441 279.712C300.921 280.544 296.601 280.96 291.481 280.96ZM279.961 252.448H303.289C303.289 250.784 302.937 249.056 302.233 247.264C301.529 245.472 300.281 243.968 298.489 242.752C296.697 241.472 294.169 240.832 290.905 240.832C288.153 240.832 285.753 241.312 283.705 242.272C281.657 243.168 280.057 244.352 278.905 245.824C277.817 247.296 277.273 248.864 277.273 250.528C277.273 251.168 277.465 251.648 277.849 251.968C278.233 252.288 278.937 252.448 279.961 252.448Z" fill="#353535"/>
</svg>
